<?xml version="1.0" encoding="UTF-8"?>
<!DOCTYPE svg PUBLIC "-//W3C//DTD SVG 1.1//EN" "http://www.w3.org/Graphics/SVG/1.1/DTD/svg11.dtd">
<!-- Creator: CorelDRAW 2018 (64-Bit) -->
<svg xmlns="http://www.w3.org/2000/svg" xml:space="preserve" width="11.4932mm" height="11.2093mm" version="1.1" style="shape-rendering:geometricPrecision; text-rendering:geometricPrecision; image-rendering:optimizeQuality; fill-rule:evenodd; clip-rule:evenodd"
viewBox="0 0 144.94 141.36"
 xmlns:xlink="http://www.w3.org/1999/xlink">
 <defs>
  <style type="text/css">
   <![CDATA[
    .fil0 {fill:#2F2C2A}
   ]]>
  </style>
 </defs>
 <g id="__x0023_Layer_x0020_1">
  <metadata id="CorelCorpID_0Corel-Layer"/>
  <path class="fil0" d="M72.47 0c-40.02,0 -72.47,32.45 -72.47,72.47 0,32.02 20.76,59.18 49.56,68.76 3.62,0.66 4.95,-1.57 4.95,-3.49 0,-1.72 -0.06,-6.28 -0.1,-12.33 -20.16,4.38 -24.41,-9.71 -24.41,-9.71 -3.3,-8.37 -8.05,-10.6 -8.05,-10.6 -6.58,-4.5 0.5,-4.41 0.5,-4.41 7.27,0.51 11.1,7.47 11.1,7.47 6.47,11.07 16.96,7.88 21.09,6.02 0.66,-4.68 2.53,-7.88 4.6,-9.69 -16.09,-1.83 -33.01,-8.05 -33.01,-35.82 0,-7.91 2.82,-14.38 7.46,-19.45 -0.75,-1.83 -3.23,-9.2 0.71,-19.18 0,0 6.08,-1.95 19.93,7.43 5.78,-1.61 11.98,-2.41 18.14,-2.44 6.15,0.03 12.35,0.83 18.14,2.44 13.84,-9.38 19.91,-7.43 19.91,-7.43 3.95,9.98 1.47,17.35 0.72,19.18 4.64,5.07 7.45,11.54 7.45,19.45 0,27.84 -16.94,33.97 -33.09,35.76 2.6,2.24 4.92,6.66 4.92,13.42 0,9.69 -0.09,17.51 -0.09,19.88 0,1.94 1.31,4.19 4.98,3.48 28.77,-9.6 49.52,-36.75 49.52,-68.76 0,-40.03 -32.45,-72.47 -72.48,-72.47z"/>
 </g>
</svg>
