<?xml version="1.0" encoding="UTF-8"?>
<!DOCTYPE svg PUBLIC "-//W3C//DTD SVG 1.1//EN" "http://www.w3.org/Graphics/SVG/1.1/DTD/svg11.dtd">
<!-- Creator: CorelDRAW 2018 (64-Bit) -->
<svg xmlns="http://www.w3.org/2000/svg" xml:space="preserve" width="9.725mm" height="8.1376mm" version="1.1" style="shape-rendering:geometricPrecision; text-rendering:geometricPrecision; image-rendering:optimizeQuality; fill-rule:evenodd; clip-rule:evenodd"
viewBox="0 0 972.5 813.76"
 xmlns:xlink="http://www.w3.org/1999/xlink">
 <defs>
  <style type="text/css">
   <![CDATA[
    .str0 {stroke:white;stroke-width:20;stroke-miterlimit:22.9256}
    .fil0 {fill:white}
   ]]>
  </style>
 </defs>
 <g id="Слой_x0020_1">
  <metadata id="CorelCorpID_0Corel-Layer"/>
  <path class="fil0 str0" d="M862.1 406.88l91.68 -91.68c5.81,-5.81 8.72,-12.9 8.72,-21.2 0,-8.3 -2.91,-15.38 -8.72,-21.2l-42.41 -42.4c-5.81,-5.82 -12.9,-8.73 -21.2,-8.73 -8.3,0 -15.38,2.91 -21.2,8.73l-91.68 91.67 -91.68 -91.67c-5.81,-5.82 -12.9,-8.73 -21.2,-8.73 -8.3,0 -15.38,2.91 -21.2,8.73l-42.4 42.4c-5.82,5.82 -8.73,12.9 -8.73,21.2 0,8.3 2.91,15.39 8.73,21.2l91.67 91.68 -91.67 91.68c-5.82,5.81 -8.73,12.9 -8.73,21.2 0,8.3 2.91,15.38 8.73,21.2l42.4 42.41c5.82,5.81 12.9,8.72 21.2,8.72 8.3,0 15.39,-2.91 21.2,-8.72l91.68 -91.68 91.68 91.68c5.82,5.81 12.87,8.72 21.2,8.72 8.33,0 15.39,-2.91 21.2,-8.72l42.41 -42.41c5.81,-5.82 8.72,-12.9 8.72,-21.2 0,-8.3 -2.91,-15.39 -8.72,-21.2l-91.68 -91.68z"/>
  <path class="fil0 str0" d="M495.05 10c-11.93,0 -22.28,4.14 -31.01,12.42l-229.43 217.36 -180.49 0c-11.96,0 -22.28,4.13 -31.02,12.41 -8.73,8.27 -13.1,18.08 -13.1,29.38l0 250.62c0,11.3 4.37,21.11 13.1,29.38 8.74,8.28 19.08,12.41 31.02,12.41l180.49 0 229.43 217.36c8.73,8.28 19.05,12.42 31.01,12.42 11.96,0 22.28,-4.14 31.01,-12.42 8.74,-8.27 13.11,-18.05 13.11,-29.38l0 -710.16c0,-11.3 -4.37,-21.11 -13.08,-29.38 -8.7,-8.28 -19.05,-12.42 -31.01,-12.42l-0.03 0z"/>
 </g>
</svg>
