<svg width="456" height="363" xmlns="http://www.w3.org/2000/svg">
 <!-- Created with SVG Editor - http://github.com/mzalive/SVG Editor/ -->

 <g>
  <title>Layer 1</title>
  <g id="svg_16">
   <path id="svg_12" fill="#ffffff" d="m219.88304,0l-175.19237,128.28562l0,106.49431l175.19237,128.28562c-0.36935,-273.6842 0,-139.36595 0,-363.06555z"/>
   <path id="svg_13" fill="#ffffff" d="m0,269.865184l91.966757,0l0,-176.792733l-91.966757,0l0,176.792733z"/>
   <path id="svg_14" fill="#ffffff" d="m332.409966,358.755302c-4.23638,0.009849 -8.380425,-1.236073 -11.907664,-3.58141c-3.52847,-2.344106 -6.282548,-5.682979 -7.913819,-9.591874c-1.116651,-2.618652 -1.706371,-5.433056 -1.735919,-8.27947c-0.028316,-2.847645 0.50354,-5.671899 1.567251,-8.313943c1.063712,-2.640813 2.637119,-5.046476 4.630348,-7.079101c1.993229,-2.032625 4.368113,-3.652816 6.987996,-4.767005c17.413358,-7.381964 33.221298,-18.088027 46.537395,-31.517389c27.489073,-27.649122 42.933825,-65.044012 42.967066,-104.032008c-0.131733,-39.040935 -15.711911,-76.443212 -43.33641,-104.032254c-13.341951,-13.431086 -29.140043,-24.172853 -46.537395,-31.640504c-5.260695,-2.251524 -9.417051,-6.492705 -11.561711,-11.797845c-2.145891,-5.305017 -2.105263,-11.243213 0.112034,-16.518559c1.062481,-2.632687 2.642044,-5.024931 4.647584,-7.034534c2.004309,-2.009726 4.392736,-3.595814 7.023699,-4.663958c2.629732,-1.068144 5.44783,-1.59643 8.286857,-1.553709c2.837796,0.042721 5.638658,0.655709 8.235149,1.802524c45.452754,19.39489 81.602953,55.676699 100.831023,101.200367c9.913204,23.364973 15.021237,48.48778 15.020006,73.869128c-0.012311,25.367805 -5.076023,50.4783 -14.896891,73.868881c-9.516774,22.611265 -23.359803,43.145582 -40.751,60.449368c-17.143736,17.653431 -37.601723,31.752539 -60.203138,41.489688c-2.52016,1.117882 -5.244691,1.70514 -8.002462,1.723607z"/>
   <path id="svg_15" fill="#ffffff" d="m291.658966,271.838714c-4.685749,-0.006156 -9.226223,-1.631271 -12.850723,-4.6008c-3.6245,-2.969529 -6.110188,-7.100031 -7.037242,-11.693444c-0.928286,-4.593413 -0.240074,-9.365343 1.948907,-13.508156c2.18775,-4.142813 5.742074,-7.402893 10.058479,-9.224992c10.041243,-4.267159 18.597722,-11.404124 24.599569,-20.514619c6.000615,-9.111727 9.17944,-19.791936 9.135118,-30.701138c0.04309,-7.400431 -1.423207,-14.731917 -4.309018,-21.54509c-2.91659,-6.616189 -7.098799,-12.597107 -12.31148,-17.605417c-5.032933,-5.185595 -11.008926,-9.364112 -17.605417,-12.31148c-4.353339,-2.430286 -7.654047,-6.384734 -9.26562,-11.103108c-1.612804,-4.717882 -1.423207,-9.865435 0.534318,-14.451215c1.956294,-4.58578 5.540166,-8.285503 10.060942,-10.38658c4.522007,-2.1012 9.66205,-2.455155 14.429055,-0.993783c14.435211,6.178024 27.146814,15.784795 37.029239,27.986949c9.883656,12.201662 16.640197,26.630717 19.684826,42.036072c3.044629,15.404124 2.285011,31.319175 -2.213604,46.362572c-4.497384,15.044629 -12.599569,28.764542 -23.599876,39.970452c-8.689443,8.781779 -19.022468,15.767313 -30.409356,20.560172c-2.484457,1.098184 -5.162204,1.68421 -7.878116,1.723607z"/>
  </g>
 </g>
</svg>